<?xml version="1.0" standalone="no"?>
<!DOCTYPE svg PUBLIC "-//W3C//DTD SVG 20010904//EN"
 "http://www.w3.org/TR/2001/REC-SVG-20010904/DTD/svg10.dtd">
<svg version="1.0" xmlns="http://www.w3.org/2000/svg"
 width="1261.000000pt" height="1261.000000pt" viewBox="0 0 1261.000000 1261.000000"
 preserveAspectRatio="xMidYMid meet">
<metadata>
Created by potrace 1.14, written by Peter Selinger 2001-2017
</metadata>
<g transform="translate(0.000000,1261.000000) scale(0.100000,-0.100000)"
fill="#000000" stroke="none">
<path d="M2500 8174 c-65 -89 -85 -114 -94 -114 -8 0 -199 142 -208 155 -4 5
-9 7 -11 5 -3 -3 -172 -228 -377 -500 -204 -272 -526 -699 -713 -948 -188
-249 -358 -475 -377 -502 -31 -43 -245 -328 -304 -405 -13 -16 -80 -105 -149
-197 l-125 -166 21 -20 c12 -10 113 -87 224 -170 l201 -151 242 322 c132 177
251 335 263 351 37 49 106 140 114 151 63 80 245 328 248 338 2 6 -16 27 -41
45 -25 19 -44 35 -42 37 4 5 429 185 435 185 3 0 2 -12 -1 -27 -3 -16 -8 -48
-11 -73 -3 -25 -7 -64 -10 -88 -3 -24 -7 -53 -10 -65 -2 -12 -7 -51 -10 -87
-3 -36 -9 -80 -13 -98 l-7 -34 -46 36 -46 35 -20 -22 c-11 -12 -73 -94 -139
-182 -65 -88 -125 -167 -131 -175 -59 -72 -122 -165 -116 -171 12 -10 418
-314 430 -322 8 -5 149 174 385 488 205 273 380 505 388 517 13 19 12 23 -16
47 -16 14 -45 37 -63 51 l-33 25 94 38 c51 22 102 43 113 48 105 46 299 129
302 129 3 0 0 -38 -12 -125 -2 -16 -7 -52 -10 -80 -4 -27 -8 -57 -10 -65 -2
-8 -7 -51 -10 -95 -4 -44 -10 -100 -15 -125 -5 -24 -6 -49 -3 -54 9 -13 -14 1
-73 45 -28 22 -55 39 -60 39 -5 0 -27 -25 -48 -55 -22 -30 -47 -63 -55 -72 -9
-10 -61 -79 -116 -153 -55 -74 -102 -137 -105 -140 -3 -3 -29 -36 -57 -74
l-53 -68 226 -168 225 -169 347 461 c191 253 368 488 394 523 l46 63 -66 48
-66 48 40 17 c21 9 127 54 234 98 107 45 203 86 212 92 28 15 30 12 24 -33 -3
-24 -8 -63 -11 -88 -3 -25 -8 -56 -10 -70 -3 -23 -7 -55 -20 -170 -22 -202
-14 -189 -89 -130 l-63 49 -46 -62 c-25 -34 -55 -73 -66 -87 -10 -14 -81 -108
-157 -210 -76 -102 -142 -189 -147 -195 -5 -5 -168 -223 -364 -484 -293 -390
-353 -475 -342 -486 8 -7 82 -63 164 -124 83 -62 161 -121 175 -132 79 -59 95
-68 100 -62 4 5 60 80 126 168 65 88 121 162 124 165 3 3 113 149 245 325 132
176 242 322 245 325 3 3 24 30 45 60 22 30 45 62 52 70 42 52 576 766 579 775
3 6 -33 38 -78 72 -46 34 -95 71 -109 83 l-27 22 70 91 c38 51 74 93 78 95 5
2 53 -30 107 -71 54 -40 103 -76 109 -80 6 -3 41 36 80 88 38 52 73 95 78 95
5 0 33 -18 62 -40 29 -22 57 -40 61 -40 4 1 26 24 47 52 l39 50 -39 33 c-21
18 -51 40 -65 49 -26 15 -26 15 -64 -39 -20 -30 -39 -55 -42 -55 -4 0 -172
125 -200 150 -7 5 -16 10 -21 10 -5 0 -39 -41 -76 -90 -38 -50 -71 -92 -75
-94 -4 -3 -54 31 -111 75 -58 43 -108 79 -113 79 -4 0 -44 -49 -88 -110 -45
-60 -83 -110 -86 -110 -2 0 -2 3 0 8 3 4 8 36 12 72 3 36 8 84 11 108 l5 42
-36 -20 c-20 -11 -40 -20 -45 -20 -6 0 -33 -11 -62 -25 -28 -14 -53 -23 -56
-21 -3 3 214 299 275 376 7 8 71 93 142 187 l129 173 -109 81 c-60 45 -109 84
-109 87 0 8 140 192 146 192 2 0 48 -33 102 -73 53 -41 102 -77 109 -81 8 -4
38 28 84 89 39 52 74 95 78 95 3 0 29 -18 56 -40 28 -22 55 -40 61 -40 11 0
84 87 84 100 0 9 -106 90 -118 90 -4 0 -25 -22 -46 -50 -21 -27 -40 -50 -42
-50 -2 0 -52 36 -110 80 -58 44 -108 80 -112 80 -4 -1 -38 -43 -76 -95 -80
-110 -60 -110 -204 -2 -54 41 -96 66 -100 61 -4 -6 -117 -156 -252 -335 -134
-178 -266 -353 -293 -389 -26 -36 -53 -72 -60 -80 -7 -8 -79 -105 -162 -215
-82 -110 -154 -205 -160 -211 -5 -6 -35 -46 -65 -87 -57 -79 -74 -93 -65 -54
4 20 8 46 20 155 2 17 2 32 -1 32 -3 0 -47 -18 -99 -40 -52 -22 -96 -40 -99
-40 -2 0 79 110 180 245 101 134 184 248 184 254 0 5 -47 44 -105 87 -58 43
-105 81 -105 85 0 6 94 133 118 157 6 7 12 18 12 23 0 20 28 6 119 -63 52 -40
101 -76 107 -80 8 -5 37 26 83 87 39 52 71 98 71 102 0 9 -206 163 -217 163
-5 0 -39 -43 -78 -95 -38 -52 -71 -95 -72 -95 -2 0 -51 36 -110 80 -58 44
-109 80 -113 80 -4 0 -19 -17 -33 -37 -25 -38 -41 -59 -87 -117 -14 -17 -71
-92 -125 -166 -55 -74 -102 -137 -105 -140 -3 -3 -86 -113 -185 -245 -99 -132
-182 -242 -185 -245 -3 -3 -30 -39 -60 -80 -30 -41 -57 -77 -60 -80 -3 -3 -28
-35 -55 -72 -27 -38 -51 -68 -53 -68 -2 0 -1 21 2 48 18 136 19 177 5 166 -8
-6 -41 -21 -74 -34 -33 -13 -71 -30 -85 -37 -13 -7 -26 -11 -28 -9 -3 3 63 95
101 141 4 6 45 60 91 121 46 60 199 265 341 453 250 332 257 344 239 361 -11
9 -58 47 -107 83 -48 37 -88 68 -90 71 -1 3 29 47 67 98 39 51 71 95 73 97 2
3 36 -20 88 -61 65 -51 130 -98 136 -98 4 0 40 43 80 95 39 52 73 95 74 95 2
0 62 -46 90 -68 29 -23 36 -20 76 33 23 31 40 57 38 59 -29 23 -117 86 -120
86 -3 0 -22 -22 -43 -50 -21 -27 -41 -50 -46 -50 -4 0 -55 36 -113 80 -59 44
-108 80 -109 80 -2 0 -28 -35 -58 -76z"/>
<path d="M3461 7668 c-23 -28 -41 -54 -41 -58 0 -8 109 -90 120 -90 4 0 25 24
47 53 l40 52 -63 47 -63 47 -40 -51z"/>
<path d="M4760 5785 l0 -615 95 0 95 0 0 185 0 185 155 0 c84 0 178 5 207 11
130 28 245 114 300 227 32 64 33 72 33 182 0 114 -1 117 -38 192 -26 54 -54
91 -93 128 -118 107 -171 120 -501 120 l-253 0 0 -615z m534 403 c55 -16 138
-99 154 -154 33 -113 -9 -211 -113 -267 -36 -20 -59 -22 -212 -25 l-173 -4 0
231 0 231 151 0 c90 0 168 -5 193 -12z"/>
<path d="M5935 6388 c-33 -17 -45 -40 -45 -81 0 -53 43 -97 95 -97 27 0 44 8
66 29 78 78 -19 203 -116 149z"/>
<path d="M8620 5785 l0 -615 95 0 95 0 0 615 0 615 -95 0 -95 0 0 -615z"/>
<path d="M9100 5785 l0 -615 95 0 95 0 0 185 0 185 155 0 c220 0 310 24 408
110 98 87 142 197 135 341 -4 76 -9 97 -41 162 -57 116 -159 200 -282 231 -46
13 -116 16 -312 16 l-253 0 0 -615z m531 403 c84 -25 169 -134 169 -218 0 -87
-45 -161 -124 -203 -37 -20 -59 -22 -213 -25 l-173 -4 0 231 0 231 151 0 c86
0 168 -5 190 -12z"/>
<path d="M7800 6053 c-204 -56 -340 -235 -340 -448 0 -129 48 -241 141 -330
156 -149 398 -171 581 -54 26 17 48 36 48 43 0 6 -28 42 -63 80 l-62 69 -39
-27 c-77 -52 -182 -59 -263 -18 -61 32 -119 102 -138 167 -21 72 -13 135 26
203 105 184 368 178 465 -10 l16 -31 -35 7 c-48 9 -201 -10 -281 -34 l-66 -21
0 -94 c0 -52 4 -95 9 -95 5 0 33 11 62 24 130 57 301 66 430 23 41 -14 76 -23
79 -20 3 2 5 55 5 116 0 131 -19 189 -89 284 -105 143 -310 213 -486 166z"/>
<path d="M11083 6056 c-231 -56 -382 -281 -346 -515 49 -314 376 -485 661
-345 94 46 160 113 208 210 34 68 39 86 42 171 5 117 -14 199 -68 281 -105
163 -308 244 -497 198z m224 -213 c101 -47 162 -158 149 -266 -29 -226 -308
-316 -459 -148 -49 54 -68 104 -69 176 -1 98 46 183 126 230 82 48 163 51 253
8z"/>
<path d="M10482 6034 c-29 -7 -73 -25 -96 -39 -62 -36 -143 -126 -174 -192
l-27 -58 -3 -287 -3 -288 95 0 96 0 0 253 c0 228 2 256 20 292 10 22 25 47 32
55 27 32 84 69 126 79 l42 12 0 94 0 95 -27 -1 c-16 0 -52 -7 -81 -15z"/>
<path d="M12073 6040 c-87 -18 -167 -79 -197 -152 -9 -21 -16 -66 -16 -103 0
-154 76 -225 290 -274 116 -26 160 -50 160 -86 0 -65 -48 -106 -127 -107 -50
0 -94 22 -129 66 l-28 34 -78 -39 c-43 -22 -78 -43 -78 -48 0 -5 20 -32 45
-59 60 -67 134 -102 231 -109 133 -10 246 36 309 126 26 37 30 53 34 122 3 71
0 83 -23 124 -34 58 -106 99 -206 120 -129 27 -178 44 -200 72 -22 29 -26 69
-8 107 12 28 81 66 118 66 54 0 115 -46 156 -118 2 -5 138 48 147 57 13 13
-28 84 -68 119 -87 77 -207 106 -332 82z"/>
<path d="M5890 5605 l0 -435 95 0 95 0 0 435 0 435 -95 0 -95 0 0 -435z"/>
<path d="M6320 5941 l0 -101 76 0 c93 0 141 -13 188 -51 101 -84 106 -258 10
-352 -47 -47 -82 -60 -181 -65 l-93 -5 0 -100 0 -99 118 4 c93 3 127 9 167 27
77 34 123 70 165 128 l38 54 20 -33 c35 -56 104 -116 167 -145 52 -24 75 -28
178 -31 l117 -4 0 101 0 101 -60 0 c-180 0 -279 83 -280 236 0 85 38 157 104
198 42 27 59 31 142 34 l94 4 0 100 0 100 -127 -4 c-111 -3 -135 -7 -184 -30
-64 -29 -133 -87 -155 -130 l-15 -29 -28 38 c-44 59 -81 90 -146 119 -53 25
-74 29 -187 32 l-128 4 0 -101z"/>
</g>
</svg>
